<svg xmlns="http://www.w3.org/2000/svg" viewBox="0 0 600 240"><defs><filter id="gr" x="0" y="0" width="100%" height="100%"><feTurbulence type="fractalNoise" baseFrequency="0.8" numOctaves="2" result="n"/><feColorMatrix in="n" type="matrix" values="0 0 0 0 0  0 0 0 0 0  0 0 0 0 0  0 0 0 0.05 0"/></filter></defs><rect width="600" height="240" fill="#f2f0ea"/><path d="M 507.1 52.0 C 508.3 62.6 502.3 74.6 486.5 84.3 C 470.8 94.0 443.5 105.1 412.4 110.4 C 381.3 115.7 334.8 117.6 300.0 116.2 C 265.2 114.8 231.6 107.9 203.6 102.1 C 175.6 96.2 152.2 89.4 132.0 81.1 C 111.8 72.8 87.3 62.6 82.3 52.0 C 77.3 41.4 83.7 27.0 102.2 17.7 C 120.6 8.5 159.9 0.7 192.9 -3.7 C 225.9 -8.0 265.2 -8.8 300.0 -8.3 C 334.8 -7.9 371.8 -5.7 401.7 -0.8 C 431.6 4.0 461.7 12.1 479.3 20.9 C 496.9 29.8 505.9 41.4 507.1 52.0 Z" fill="#22364e" fill-opacity="0.93"/><rect x="144" y="96" width="52" height="118" rx="12" fill="#44658a"/><rect x="274" y="96" width="52" height="118" rx="12" fill="#6d8cab"/><rect x="404" y="96" width="52" height="118" rx="12" fill="#44658a"/><rect x="274" y="96" width="52" height="16" rx="8" fill="#b99a4f"/><rect width="600" height="240" filter="url(#gr)"/></svg>