<svg xmlns="http://www.w3.org/2000/svg" viewBox="0 0 600 240"><defs><filter id="gr" x="0" y="0" width="100%" height="100%"><feTurbulence type="fractalNoise" baseFrequency="0.8" numOctaves="2" result="n"/><feColorMatrix in="n" type="matrix" values="0 0 0 0 0  0 0 0 0 0  0 0 0 0 0  0 0 0 0.05 0"/></filter></defs><rect width="600" height="240" fill="#f2f0ea"/><path d="M 534.0 122.0 C 529.0 139.0 516.0 149.6 505.4 163.6 C 494.8 177.7 487.4 198.0 470.3 206.4 C 453.2 214.8 422.2 219.4 402.8 214.0 C 383.4 208.6 364.9 189.3 353.8 174.0 C 342.7 158.7 335.4 138.7 336.4 122.0 C 337.5 105.3 347.9 86.2 360.2 73.9 C 372.4 61.7 391.3 55.2 409.9 48.5 C 428.5 41.8 450.9 31.4 471.8 33.6 C 492.7 35.9 525.0 47.1 535.4 61.9 C 545.8 76.6 539.0 105.0 534.0 122.0 Z" fill="#6d8cab" fill-opacity="0.40"/><circle cx="440" cy="178" r="8.6" fill="#44658a" fill-opacity="0.25"/><circle cx="473" cy="147" r="6.8" fill="#44658a" fill-opacity="0.25"/><circle cx="441" cy="118" r="7.9" fill="#44658a" fill-opacity="0.25"/><circle cx="385" cy="121" r="9.5" fill="#44658a" fill-opacity="0.25"/><circle cx="406" cy="172" r="6.4" fill="#44658a" fill-opacity="0.25"/><circle cx="507" cy="113" r="9.9" fill="#44658a" fill-opacity="0.25"/><circle cx="365" cy="87" r="10.8" fill="#44658a" fill-opacity="0.25"/><circle cx="373" cy="166" r="6.4" fill="#44658a" fill-opacity="0.25"/><circle cx="456" cy="88" r="9.4" fill="#44658a" fill-opacity="0.25"/><circle cx="511" cy="164" r="6.4" fill="#44658a" fill-opacity="0.25"/><circle cx="500" cy="66" r="6.3" fill="#44658a" fill-opacity="0.25"/><circle cx="377" cy="125" r="10.2" fill="#44658a" fill-opacity="0.25"/><line x1="115" y1="80" x2="195" y2="58" stroke="#2c4a6e" stroke-width="2.2" stroke-opacity="0.7"/><line x1="115" y1="80" x2="195" y2="120" stroke="#2c4a6e" stroke-width="2.2" stroke-opacity="0.7"/><line x1="115" y1="80" x2="195" y2="182" stroke="#2c4a6e" stroke-width="2.2" stroke-opacity="0.7"/><line x1="115" y1="160" x2="195" y2="58" stroke="#2c4a6e" stroke-width="2.2" stroke-opacity="0.7"/><line x1="115" y1="160" x2="195" y2="120" stroke="#2c4a6e" stroke-width="2.2" stroke-opacity="0.7"/><line x1="115" y1="160" x2="195" y2="182" stroke="#2c4a6e" stroke-width="2.2" stroke-opacity="0.7"/><line x1="195" y1="58" x2="275" y2="90" stroke="#2c4a6e" stroke-width="2.2" stroke-opacity="0.7"/><line x1="195" y1="58" x2="275" y2="152" stroke="#2c4a6e" stroke-width="2.2" stroke-opacity="0.7"/><line x1="195" y1="120" x2="275" y2="90" stroke="#2c4a6e" stroke-width="2.2" stroke-opacity="0.7"/><line x1="195" y1="120" x2="275" y2="152" stroke="#2c4a6e" stroke-width="2.2" stroke-opacity="0.7"/><line x1="195" y1="182" x2="275" y2="90" stroke="#2c4a6e" stroke-width="2.2" stroke-opacity="0.7"/><line x1="195" y1="182" x2="275" y2="152" stroke="#2c4a6e" stroke-width="2.2" stroke-opacity="0.7"/><circle cx="115" cy="80" r="11" fill="#22364e"/><circle cx="115" cy="160" r="11" fill="#22364e"/><circle cx="195" cy="58" r="11" fill="#22364e"/><circle cx="195" cy="120" r="11" fill="#b99a4f"/><circle cx="195" cy="182" r="11" fill="#22364e"/><circle cx="275" cy="90" r="11" fill="#22364e"/><circle cx="275" cy="152" r="11" fill="#22364e"/><rect width="600" height="240" filter="url(#gr)"/></svg>